<?xml version="1.0" encoding="utf-8"?>
<!-- Generator: Adobe Illustrator 26.0.3, SVG Export Plug-In . SVG Version: 6.00 Build 0)  -->
<svg version="1.1" id="Layer_1" xmlns="http://www.w3.org/2000/svg" xmlns:xlink="http://www.w3.org/1999/xlink" x="0px" y="0px"
	 viewBox="0 0 600 600" style="enable-background:new 0 0 600 600;" xml:space="preserve">
<style type="text/css">
	.st0{fill:#001B40;}
	.st1{fill:#64EF7A;}
</style>
<rect y="0.5" class="st0" width="600" height="600"/>
<path class="st1" d="M313.1,33.6c-71.2-3.5-139.4,20.9-192.2,68.8c-52.8,47.9-83.8,113.4-87.3,184.6
	c-3.5,71.2,20.9,139.4,68.8,192.2c47.8,52.8,113.4,83.8,184.5,87.3c147,7.2,272.3-106.4,279.5-253.3
	C573.6,166.2,460.1,40.8,313.1,33.6L313.1,33.6z M523.9,311c-1.2,24.9-6.5,48.6-15.1,70.6c-17.9-2.3-35.6-5.3-53-8.9
	c17.9-43.4,24-91,17.2-138.7c-6.5-45.4-24.1-86.6-49.8-121.1C487.2,155.1,527.9,229,523.9,311L523.9,311z M352.8,124.1
	c-43.8,50.3-81.3,106.3-110.9,166.8c-25.1-14.6-49.3-30.6-72.4-47.9c18.9-35.9,47.2-66.1,82.8-87.4
	C283.8,136.6,318.3,126.4,352.8,124.1L352.8,124.1z M224.2,329.8c-18.9,44.8-33.8,91.8-43.9,140.6c-1.6-2.4-3.1-4.8-4.6-7.2
	c-30.9-51.3-39.9-111.6-25.4-169.7c0.8-3.3,1.7-6.5,2.7-9.9C175.8,300.4,199.5,315.8,224.2,329.8L224.2,329.8z M240.5,493.4
	c-7.3,1-14.5,1.6-21.7,2c9.3-50.6,23.9-99.2,43.1-145.4c41.4,20.7,84.9,37.7,130.1,50.8c-1.3,1.7-2.5,3.6-3.8,5.3
	C352.2,454,299.7,485,240.5,493.4L240.5,493.4z M279.4,311.2c29.9-61.3,68.2-117.7,113.3-167.9c19.5,27.9,33,60.6,38.1,96.6
	c6,42.4-0.1,84.6-17.1,122.8C366.9,350,321.9,332.6,279.4,311.2L279.4,311.2z M149.5,133.9C193.8,93.7,251.2,73.2,311,76.1
	c13.5,0.7,26.7,2.6,39.5,5.5c-41.2,2.6-82.4,14.7-120.2,37.5c-40,24-72.2,57.4-94.6,96.9c-10.4-8.8-20.5-17.8-30.4-27.1
	C116.9,168.6,131.7,150.1,149.5,133.9L149.5,133.9z M76.1,289c1-20.4,4.7-40.1,10.9-59c9.8,8.9,19.9,17.6,30.2,26.1
	c-3.2,8.8-6,17.9-8.3,27.2c-11.4,46-10.4,93,2.3,137.4C86.2,381.7,73.8,336.1,76.1,289L76.1,289z M294.9,524
	c50.5-17,94.7-48.8,127.3-92.4c4.8-6.4,9.3-13,13.5-19.7c17.3,3.8,34.8,7.1,52.5,9.8C447.1,485,375.2,525.9,294.9,524L294.9,524z"/>
</svg>
